ply
format ascii 1.0
comment created by MATLAB ply_write
element vertex 6
property float x
property float y
property float z
property uchar_t diffuse_red
property uchar_t diffuse_green
property uchar_t diffuse_blue
element face 2
property list uchar char vertex_indices
end_header
0.000000 0.000000 0.000000 255 0 0 
1.000000 0.000000 0.000000 255 0 0
0.000000 1.000000 0.000000 255 0 0
2.000000 1.000000 0.000000 0 255 0
2.000000 0.000000 0.000000 0 255 0
3.000000 0.000000 0.000000 0 255 0
3 1 0 2 
3 4 3 5
