ply
format ascii 1.0
comment created by MATLAB ply_write
element vertex 24
property float x
property float y
property float z
property uchar_t red
property uchar_t green
property uchar_t blue
element face 21
property list uchar char vertex_indices
end_header
0.000000 0.000000 3.000000 0 255 0
-5.000000 0.000000 10.000000 255 0 0
5.000000 0.000000 10.000000 0 255 0
5.000000 0.000000 0.000000 0 255 0
-5.000000 0.000000 0.000000 255 0 0
-15.000000 0.000000 10.000000 255 0 0
15.000000 0.000000 10.000000 0 255 0
-5.000000 0.000000 -10.000000 255 0 0
5.000000 0.000000 -10.000000 0 255 0
0.000000 10.000000 3.000000 0 255 0
-5.000000 10.000000 10.000000 255 0 0
5.000000 10.000000 10.000000 0 255 0
5.000000 10.000000 0.000000 0 255 0
-5.000000 10.000000 0.000000 255 0 0
-15.000000 10.000000 10.000000 255 0 0
15.000000 10.000000 10.000000 0 255 0
-5.000000 10.000000 -10.000000 255 0 0
5.000000 10.000000 -10.000000 0 255 0
15.000000 10.000000 10.000000 0 0 255
5.000000 10.000000 10.000000 0 0 255
10.000000 0.000000 10.000000 0 0 255
-15.000000 10.000000 10.000000 0 0 255
-5.000000 10.000000 10.000000 0 0 255
-10.000000 0.000000 10.000000 0 0 255
3 0 2 9
3 9 11 2
3 3 6 12
3 6 15 12
3 0 9 1
3 1 10 9
3 4 13 5
3 5 14 13
3 7 16 4
3 4 13 16
3 8 17 3
3 3 12 17
3 5 1 4
3 1 0 4
3 2 6 3
3 0 2 3
3 7 4 3
3 7 8 3
3 18 19 20
3 21 22 23
3 0 3 4
